<mxfile host="app.diagrams.net" modified="2024-03-16T03:48:06.271Z" agent="Mozilla/5.0 (Windows NT 10.0; Win64; x64; rv:109.0) Gecko/20100101 Firefox/110.0" etag="UB7cPC8jGPAWXiomYX8c" version="24.0.7" type="github">
  <diagram name="第 1 页" id="gzOurBzskgwyXG9lP4dm">
    <mxGraphModel dx="1202" dy="458" grid="0" gridSize="10" guides="1" tooltips="1" connect="1" arrows="1" fold="1" page="1" pageScale="1" pageWidth="827" pageHeight="1169" math="0" shadow="0">
      <root>
        <mxCell id="0" />
        <mxCell id="1" parent="0" />
        <mxCell id="2LvC2rDsrTbeSCsYBJKb-3" value="注册成功&lt;span style=&quot;white-space: pre;&quot;&gt;&#x9;&lt;/span&gt;" style="strokeWidth=2;html=1;shape=mxgraph.flowchart.terminator;whiteSpace=wrap;" vertex="1" parent="1">
          <mxGeometry x="364" y="420" width="76" height="30" as="geometry" />
        </mxCell>
        <mxCell id="2LvC2rDsrTbeSCsYBJKb-4" value="输入用户名" style="rounded=1;whiteSpace=wrap;html=1;" vertex="1" parent="1">
          <mxGeometry x="354" y="120" width="96" height="30" as="geometry" />
        </mxCell>
        <mxCell id="2LvC2rDsrTbeSCsYBJKb-5" value="用户是否存在" style="rhombus;whiteSpace=wrap;html=1;" vertex="1" parent="1">
          <mxGeometry x="367" y="190" width="70" height="70" as="geometry" />
        </mxCell>
        <mxCell id="2LvC2rDsrTbeSCsYBJKb-6" value="输入密码" style="rounded=1;whiteSpace=wrap;html=1;" vertex="1" parent="1">
          <mxGeometry x="357" y="300" width="96" height="30" as="geometry" />
        </mxCell>
        <mxCell id="2LvC2rDsrTbeSCsYBJKb-7" value="确认密码" style="rounded=1;whiteSpace=wrap;html=1;" vertex="1" parent="1">
          <mxGeometry x="357" y="360" width="96" height="30" as="geometry" />
        </mxCell>
        <mxCell id="2LvC2rDsrTbeSCsYBJKb-8" value="点击注册" style="strokeWidth=2;html=1;shape=mxgraph.flowchart.terminator;whiteSpace=wrap;" vertex="1" parent="1">
          <mxGeometry x="364" y="60" width="76" height="30" as="geometry" />
        </mxCell>
        <mxCell id="2LvC2rDsrTbeSCsYBJKb-9" value="用户密码是否存在" style="rhombus;whiteSpace=wrap;html=1;" vertex="1" parent="1">
          <mxGeometry x="560" y="280" width="70" height="70" as="geometry" />
        </mxCell>
        <mxCell id="2LvC2rDsrTbeSCsYBJKb-10" value="" style="endArrow=classic;html=1;rounded=0;entryX=0;entryY=0.5;entryDx=0;entryDy=0;exitX=0.969;exitY=0.5;exitDx=0;exitDy=0;exitPerimeter=0;" edge="1" parent="1" source="2LvC2rDsrTbeSCsYBJKb-6" target="2LvC2rDsrTbeSCsYBJKb-9">
          <mxGeometry width="50" height="50" relative="1" as="geometry">
            <mxPoint x="460" y="320" as="sourcePoint" />
            <mxPoint x="510" y="270" as="targetPoint" />
          </mxGeometry>
        </mxCell>
        <mxCell id="2LvC2rDsrTbeSCsYBJKb-22" value="n" style="edgeLabel;html=1;align=center;verticalAlign=middle;resizable=0;points=[];" vertex="1" connectable="0" parent="2LvC2rDsrTbeSCsYBJKb-10">
          <mxGeometry x="0.0098" y="3" relative="1" as="geometry">
            <mxPoint as="offset" />
          </mxGeometry>
        </mxCell>
        <mxCell id="2LvC2rDsrTbeSCsYBJKb-11" value="" style="endArrow=classic;html=1;rounded=0;entryX=0.5;entryY=0;entryDx=0;entryDy=0;exitX=0.5;exitY=1;exitDx=0;exitDy=0;exitPerimeter=0;" edge="1" parent="1" source="2LvC2rDsrTbeSCsYBJKb-8" target="2LvC2rDsrTbeSCsYBJKb-4">
          <mxGeometry width="50" height="50" relative="1" as="geometry">
            <mxPoint x="400" y="100" as="sourcePoint" />
            <mxPoint x="450" y="50" as="targetPoint" />
          </mxGeometry>
        </mxCell>
        <mxCell id="2LvC2rDsrTbeSCsYBJKb-12" value="" style="endArrow=classic;html=1;rounded=0;entryX=0.5;entryY=0;entryDx=0;entryDy=0;exitX=0.5;exitY=1;exitDx=0;exitDy=0;exitPerimeter=0;" edge="1" parent="1" target="2LvC2rDsrTbeSCsYBJKb-5">
          <mxGeometry width="50" height="50" relative="1" as="geometry">
            <mxPoint x="401.5" y="150" as="sourcePoint" />
            <mxPoint x="401.5" y="180" as="targetPoint" />
          </mxGeometry>
        </mxCell>
        <mxCell id="2LvC2rDsrTbeSCsYBJKb-15" value="" style="endArrow=classic;html=1;rounded=0;entryX=0.5;entryY=0;entryDx=0;entryDy=0;exitX=0.5;exitY=1;exitDx=0;exitDy=0;exitPerimeter=0;" edge="1" parent="1">
          <mxGeometry width="50" height="50" relative="1" as="geometry">
            <mxPoint x="401.5" y="260" as="sourcePoint" />
            <mxPoint x="402" y="300" as="targetPoint" />
          </mxGeometry>
        </mxCell>
        <mxCell id="2LvC2rDsrTbeSCsYBJKb-16" value="" style="endArrow=classic;html=1;rounded=0;exitX=0.5;exitY=1;exitDx=0;exitDy=0;exitPerimeter=0;" edge="1" parent="1">
          <mxGeometry width="50" height="50" relative="1" as="geometry">
            <mxPoint x="401.5" y="330" as="sourcePoint" />
            <mxPoint x="402" y="360" as="targetPoint" />
          </mxGeometry>
        </mxCell>
        <mxCell id="2LvC2rDsrTbeSCsYBJKb-17" value="" style="endArrow=classic;html=1;rounded=0;exitX=0.5;exitY=1;exitDx=0;exitDy=0;exitPerimeter=0;" edge="1" parent="1">
          <mxGeometry width="50" height="50" relative="1" as="geometry">
            <mxPoint x="401.5" y="390" as="sourcePoint" />
            <mxPoint x="402" y="420" as="targetPoint" />
          </mxGeometry>
        </mxCell>
        <mxCell id="2LvC2rDsrTbeSCsYBJKb-19" value="" style="endArrow=classic;html=1;rounded=0;exitX=0.5;exitY=0;exitDx=0;exitDy=0;" edge="1" parent="1" source="2LvC2rDsrTbeSCsYBJKb-9">
          <mxGeometry width="50" height="50" relative="1" as="geometry">
            <mxPoint x="600" y="280" as="sourcePoint" />
            <mxPoint x="400" y="270" as="targetPoint" />
            <Array as="points">
              <mxPoint x="595" y="270" />
            </Array>
          </mxGeometry>
        </mxCell>
        <mxCell id="2LvC2rDsrTbeSCsYBJKb-21" value="y" style="text;html=1;align=center;verticalAlign=middle;resizable=0;points=[];autosize=1;strokeColor=none;fillColor=none;" vertex="1" parent="1">
          <mxGeometry x="395" y="328" width="30" height="30" as="geometry" />
        </mxCell>
        <mxCell id="2LvC2rDsrTbeSCsYBJKb-24" value="" style="endArrow=classic;html=1;rounded=0;exitX=1;exitY=0.5;exitDx=0;exitDy=0;entryX=1;entryY=0.5;entryDx=0;entryDy=0;" edge="1" parent="1" source="2LvC2rDsrTbeSCsYBJKb-5" target="2LvC2rDsrTbeSCsYBJKb-4">
          <mxGeometry width="50" height="50" relative="1" as="geometry">
            <mxPoint x="437" y="230" as="sourcePoint" />
            <mxPoint x="500" y="170" as="targetPoint" />
            <Array as="points">
              <mxPoint x="500" y="225" />
              <mxPoint x="500" y="135" />
            </Array>
          </mxGeometry>
        </mxCell>
        <mxCell id="2LvC2rDsrTbeSCsYBJKb-25" value="y" style="text;html=1;align=center;verticalAlign=middle;resizable=0;points=[];autosize=1;strokeColor=none;fillColor=none;" vertex="1" parent="1">
          <mxGeometry x="375" y="258" width="30" height="30" as="geometry" />
        </mxCell>
        <mxCell id="2LvC2rDsrTbeSCsYBJKb-26" value="n" style="text;html=1;align=center;verticalAlign=middle;resizable=0;points=[];autosize=1;strokeColor=none;fillColor=none;" vertex="1" parent="1">
          <mxGeometry x="505" y="168" width="30" height="30" as="geometry" />
        </mxCell>
      </root>
    </mxGraphModel>
  </diagram>
</mxfile>
